<svg width="20" height="20" viewBox="0 0 20 20" fill="none" xmlns="http://www.w3.org/2000/svg">
<path fill-rule="evenodd" clip-rule="evenodd" d="M3.0036 2.01232C3.26579 2.01005 3.5184 2.11084 3.707 2.293H3.708L5.488 4.074C6.8865 3.36585 8.43243 2.99787 10 3C14.478 3 18.268 5.943 19.542 10C18.9433 11.8999 17.7915 13.5781 16.234 14.82L17.707 16.293C17.8892 16.4816 17.99 16.7342 17.9877 16.9964C17.9854 17.2586 17.8802 17.5094 17.6948 17.6948C17.5094 17.8802 17.2586 17.9854 16.9964 17.9877C16.7342 17.99 16.4816 17.8892 16.293 17.707L2.293 3.707C2.11084 3.5184 2.01005 3.26579 2.01232 3.0036C2.0146 2.7414 2.11977 2.49059 2.30518 2.30518C2.49059 2.11977 2.7414 2.0146 3.0036 2.01232ZM7.96863 6.55363L7.968 6.553V6.554C7.96821 6.55388 7.96842 6.55375 7.96863 6.55363ZM7.96863 6.55363L9.482 8.068C9.82109 7.97795 10.1779 7.97855 10.5167 8.06973C10.8555 8.16091 11.1644 8.33948 11.4124 8.58756C11.6605 8.83565 11.8391 9.14454 11.9303 9.48333C12.0215 9.82212 12.022 10.1789 11.932 10.518L13.446 12.032C13.897 11.268 14.0812 10.3758 13.9697 9.49568C13.8581 8.61556 13.4571 7.79749 12.8298 7.17018C12.2025 6.54286 11.3844 6.14189 10.5043 6.03035C9.62445 5.91883 8.73247 6.10291 7.96863 6.55363ZM9.75 13.992L12.454 16.697C11.669 16.895 10.847 17 10 17C5.523 17 1.732 14.057 0.458 10C0.852349 8.74691 1.49021 7.58401 2.335 6.578L6.008 10.251C6.06917 11.2233 6.48309 12.1398 7.17206 12.8286C7.86103 13.5174 8.77769 13.9311 9.75 13.992Z" fill="#647396"/>
</svg>
