<svg width="20" height="20" viewBox="0 0 20 20" fill="none" xmlns="http://www.w3.org/2000/svg">
<path fill-rule="evenodd" clip-rule="evenodd" d="M9.99999 9.882L2.00299 5.884C2.03259 5.37444 2.2559 4.89549 2.62717 4.54523C2.99844 4.19497 3.48958 3.99991 3.99999 4H16C16.5104 3.99991 17.0015 4.19497 17.3728 4.54523C17.7441 4.89549 17.9674 5.37444 17.997 5.884L9.99999 9.882ZM10 12.118L18 8.118V14C18 14.5304 17.7893 15.0391 17.4142 15.4142C17.0391 15.7893 16.5304 16 16 16H4C3.46957 16 2.96086 15.7893 2.58579 15.4142C2.21071 15.0391 2 14.5304 2 14V8.118L10 12.118Z" fill="#647396"/>
</svg>
